<?xml version="1.0" encoding="UTF-8"?>
<svg xmlns="http://www.w3.org/2000/svg" xmlns:xlink="http://www.w3.org/1999/xlink" viewBox="-17561.95 -22193.95 15400.9 23032.9">
  <title>Northwest Territories</title>
  <style type="text/css">
		path{
			stroke-linejoin:round;
			stroke-linecap:round;
		}
	</style>
  <defs id="defs1">
		<mask id="all">
			<g>
				<path fill="#fff" stroke="none" d="m-24500-27050h55700v47100h-55700z"/>
				<use id="LAKES" fill="#000" xlink:href="#Lakes"/>
				<g fill="none" stroke="#000" stroke-width="40">
					<path d="m17072 12065 28-30 64-131 127-130-1-96 54-71 63-32 25-62 28-33 19-59 73 5 56-12 285-249 16-46v-43"/>
				</g>
				<g fill="none" stroke="#000" stroke-width="96">
					<path d="m-13214-2631-2585 6234 21 34 36 19-38 54 64 42 16 107-32 22-80-70h-21l41 308 182 90 15 202 121 119 40-106 47 14 81 170-39 63 29 203 110 82-44 74 43 144-68 23 46 196-56 91 4 12 116 5 74-85 126 216-122 52 37 114 47 4 41 98 43-16 127 23-23 112 111 256-23 31 17 31 7 157 63 18 88-92 49 40 2 151 42 87-12 41 41 37 1 17-16 17 9 50 43 28-47 138 145 187-45 81 149 114 77 229-69 6 112 241 56-13 1 94-28 6 34 64-5 65 53-31 95 16 29 161 57 134-29 112 8 75-25 74 18 72-22 104-18-8-29 74 11 83-8 47-20 14 2 44-40 24-12 68-62-3 4 73 91 32-49 93-15 79 52 71 17 161 111 67 40 55-16 67 44 62-21 43 2 5"/>
					<path d="m-8064-955-1627 6771-240 997-947 3941"/>
					<path d="m-3793-208-459 4145h2l-41 378 24 3-41 378 24 3-41 378 24 3-41 379 23 3-41 379 24 2-41 380 25 3-40 380 23 3-41 381 23 2-40 381 19 2-40 382 22 2-40 382 19 2-40 382 22 2-36 344 5 1-40 387 21 2-40 388 21 2-40 390 23 2-40 389 21 3-21 201-19 189 21 2-39 390 18 2-40 393 22 2-19 197"/>
					<path d="m3578 3252L872 6807l-974 991-9 3817-1 429"/>
					<path d="m10559 8018 1045 4210-23 144 163 171 37 170 96 87 55 80 97 82 29 1 93 128 76 53 54 93 117 80 119 42 14 47 37 16 235-29 65 25 40-37 87-23 80 14 37-17 122 15 121-3 4-22 91 19 272 95 18 71 87 72 183 41 49-38-39-84 26-21 65-4 52 30 5 78 32 53 48-7 23 35-16 33 117 117 114-12 100 38 93-48-10-45 95-39 108 19 128 82 39-15 89-132 218-162 59-70 92-21 69-44 37-71 166-29 52-34 91 18 61-10-1 3 77 1 26 304 156 84-71 93-17 81-3-1-20 28-23 18-22 9-37 38-8 18"/>
					<path d="m15755-4173-90 42-53 69 7 32 92 19 70-15 32 46-72 45 43 57-106 27 89 74 125-23-4 72-40 5-2 80 86 95-36 77 23 108 109 6 79 43 31-41 42-111 66-2-50 132 92 189 81 118 75-26 81 53-78 78-158-30-69 38 55 161 70-73 109 19 31-44 138-34 36 96 65 10 15-86 93-139 137-14 83 55-94 107-157 98 7 112 84 58 29-82 42 2 56 46-5 78-59 16 18 81-73 36 29 152-66 93 54 114 116-21 216 218 5-51 69-26 53 78 125-10-20-65 28-31 42 72-46 133 76 118 68 64-63 73 30 86 75-28 47 179-46 9 122 203-65 48 38 80-30 110 198 105 66 73-29 65-116 33 144 136 61-58 75 39-78 108 73 71 57-98 51 53 54-42 49 18 112-63-5 48-153 186 157 92 31 126 47-18 60 147-33 49 87 27 195-92 25 30-123 99 30 34-58 67 52 15 116-66-44 149 122 245-163 20 85 124-37 60 188 83-179 131-142-70-193 13-10 88-130 48-33-89-160-35-102 12-26 176-144 42 75 52 23 55-127 23-4 51-157-87-43-74-122 55-73-27-50 32-353-197-9 39-121-69-7 58 109 44 8 116 127 89-39 36 154 146 12 109-199-23-285-120 7-37-73-13-66 68 218 159 185 98-68 154 47 104-179-36 39 96-115 118 170 233-67 83 48 121 272 102-43 60 20 32 54-19 230 151 149-49 135 84-37 98 52 34 82 232-206-33-57 82 172 223 107 6 28-66 88 99 118 38 84-145-51-189 69-172 186 147-79 37 206 222-123-22 187 286-72 46 74 101 109 64 45-44-88-149 191 87 24 79 96-4 38-84 120-36 62 69 36-136a43104 43104 0 0 0 6 0l8 1 23 48 126 48 60 143 37-71 121 70 151-37-3-52 100-37 37-13 175 128 37-131 47-31 5-79-101-82-66-132 59-40 4 4-66-89 11-106-89-98 2-161-129-141-43-165 208-170 14-141 71 105 173 33-230 176-77 94-8 122 93 84 166-14 209 202-112 42 62 67a43223 43223 0 0 0 3895-2352l121 177 133 196h-1l108 160"/>
					<path d="m19218 9964 154-127 124-149 72-186-165-371 179-80-38-86 357-162-3 17 35 57 40-8 26-3 106 8 22 16 3-58 39-21 57-8 34-56 46-49 84 19-30-57 9-47 38-47 51-12 4-11"/>
					<path d="m23343 9612 4 17-73 35-4 8 4 16-6 60-13 54 4 46"/>
					<path d="m-15092-14714-775 1016v11l-33 36-1 14 52 67-130 203-42 119-122 63-92 171a26929 26929 0 0 0 801 583l-103-46-29 68 42 50-44 160-111-13 53 227-63 6-1 2-184 156 67 69-47 135-118 34 29 71-66 50 50 74 209-8 26 76-80 52 28 50 124-58 70 13-20 65 78 22-22 41-145 22 37 154-33 174-179 118 2-2-93 15-70 63-112-10-30 86 94 9-62 100 67 43-17 50-108 10-42 87-87 16-3 71 76 24 32 134 41 42-30 182 66 60-152 89 124 71 93-20 74 95-27 292-69 14-6 115 49 27-57 35 70 126 23 134 104 9-55 105-120-7 3 70 74-3 11 300-61-21-55 105-80-37-65 33 64 125-23 125 74 91-168 128-38 333 75 189-108 38 23 48-95 71 15 80-70 45 172 178 129 2 29 274-17 102 64 15 6 65-67 43 115 381 110 45 45 84-88 299-84 14-33 110 72 23-103 281 98 42 67-2 63 67 54 37 45-77 56 30 32 76 117-61 17 131 35 28 47-10 34 78 80 37 55-26 178 56 65-96 120 71-62 192-93 36 1 285 84 60-56 82-22 329 1 10 53 113"/>
					<path d="m-3208-21147-2324 9668a23675 23675 0 0 1-900-235l-26 92-3 27 38-1 5 26-46 12-42-9-21-20-9 31-84-24 50-173a23675 23675 0 0 1-1498-488l-51 110 86 328-69-30-1389-451-663 1553 2397 3710a28552 28552 0 0 0 795 212l421 843 1906 706 1349 501-503 4551"/>
					<path clip-path="url(#nu_nl-clip)" d="m15741-4139 5-203"/>
					<path d="m-22032-7952a34499 34499 0 0 0 5051 3483 34499 34499 0 0 0 1885 991 34499 34499 0 0 0 1882 847A34499 34499 0 0 0-8064-955a34500 34500 0 0 0 4271 747 34500 34500 0 0 0 4 0A34500 34500 0 0 0 94 1"/>
				</g>
			</g>
		</mask>
		<clipPath id="nu_nl-clip">
			<use xlink:href="#killiniq"/>
		</clipPath>
		<clipPath id="nt_nu-clip">
			<use xlink:href="#victoria"/>
			<use xlink:href="#melville"/>
			<use xlink:href="#mackenzie_king"/>
			<use xlink:href="#borden"/>
		</clipPath>
	</defs>
  <g id="NT" fill="#A8E6CF">
		<path mask="url(#all)"  d="m-15092-14714 71 90 17-2 63 141-4 48 37 37 11 123 38 15 12-26 10-238-46-18-44-111 16-78 61 10 17 72 39 31 30-46-42-102 58-118 74-20 39-24 46 6 24 25 41 1 17-17 8-31 13-3 42 32 15 22 44-16 56 1 23 8 27 4 16 22 19-1 13 14 15-3 16 15 1 24 11 2 4-18 37 7 54-15 15 25 16-7 8-23 54-29 28-51-2-36 26-15 29 6 28 63 1 29-16 56-46 17-16 8-5 19 2 27 15 19 41 9-11 54 26 17 18-25 24 18-25 38-74 45-85 23-29 20-9 34 27 26 18-4 17-22 76 23 11-20 27-1v1l55 16 65 61 65 19 75-34 113-135 37-4 1-1 19 10v35h46l13 47 27 3 10 19 51-6 15-17-6-15-20 9-27-1 24-14-26-20-32 5-21-7 15-17 62-35 19 4 11 37 26-5 19 22-12 22 35 52 23-30 66 8 42-9 32 16 104-46v-1l72 17 34-54 17 1 36 66-9 46 19-1 2 22 151-143 97-8 122 62 81 129 65 7 70-86 57-30 34-1-16 98 19 101-79 70-335 10-35 18-23-20-111 32-25 30-40 4-60-8-66 63-24-4-47 42-36 75-37 38 14 21-37 49-79 50 18 18 46-41 23-6 8-25 64-27 63 3 58-69 91-38 31-41 77-45 90 33 131-5 30 14 60-11 158 53-82 149 143 6 32-28 48-7 39-37 113-19 45 22 28-153 32-37 109-6 195 49 30 19-5-27-136-126 18-98-15-33 83-106 79-43 75 219 19 119-1 192-38 223 24 39-9 42-38 18-34 157 15 276 81 252 50 13 3 32 25 1-20 27 27 36 50 6 3-44-20-37 86 61 20 21 34-61-15-31-26 7-44-42-41 12-45-14 85-64 82 27 46-58-63-50 79-63 44 29 82-42-51-37 6-63 64-15-34 64 57 5 106-108 55 3-21-37 25-7-26-26-22 16-13-31-69 51-37-12 37-70 114-36-34 65 40-22 87 19 1-55 36-22-1-43 84 18 5 25-84 4 7 25 47-7 2 28 39-4v26l-31 8 5 61-25 50-50 19-6 50-44 55 13 30-24-2-84 94 17 36 33 23 22 9 59-11 19 26-7 44-71 15-61 71-106 46-44 109 49 61 36 12 80-33 64 46 53 53 58-1 30-51 33-32h84l47-27 16-57 54-56 31-66-6-25 90-36 24 57 36 4 9-23 17 6 27 17 4 23 91 18 38 29 2 24 26 8 12-13 128 72 20 42 78 42 17 64 21 23 16 36 52 47 24 42 13 43v44l7 18-663 1553 2397 3710a28552 28552 0 0 0 795 212l421 843 1906 706 1349 501-503 4551a34499 34499 0 0 1-11307-3270l-53-113-1-10 22-329 56-82-84-60-1-285 93-36 62-192-120-71-65 96-178-56-55 26-80-37-34-78-47 10-35-28-17-131-117 61-32-76-56-30-45 77-54-37-63-67-67 2-98-42 103-281-72-23 33-110 84-14 88-299-45-84-110-45-115-381 67-43-6-65-64-15 17-102-29-274-129-2-172-178 70-45-15-80 95-71-23-48 108-38-75-189 38-333 168-128-74-91 23-125-64-125 65-33 80 37 55-105 61 21-11-300-74 3-3-70 120 7 55-105-104-9-23-134-70-126 57-35-49-27 6-115 69-14 27-292-74-95-93 20-124-71 152-89-66-60 30-182-41-42-32-134-76-24 3-71 87-16 42-87 108-10 17-50-67-43 62-100-94-9 30-86 112 10 70-63 93-15-2 2 179-118 33-174-37-154 145-22 22-41-78-22 20-65-70-13-124 58-28-50 80-52-26-76-209 8-50-74 66-50-29-71 118-34 47-135-67-69 184-156 1-2 63-6-53-227 111 13 44-160-42-50 29-68 103 46a26929 26929 0 0 1-801-583l92-171 122-63 42-119 130-203-52-67 1-14 33-36v-11z"/>
		<path mask="url(#all)" clip-path="url(#nt_nu-clip)" d="m-3208-21147-2324 9668a23675 23675 0 0 1-900-235l-26 92-3 27 38-1 5 26-46 12-42-9-21-20-9 31-84-24 50-173a23675 23675 0 0 1-1498-488l-51 110 86 328-69-30h-150v-9314z"/>
		<use xlink:href="#i-CA-NT"/>
	</g>
  <g id="i-CA-NT" fill="#A8E6CF">
					<path id="baillie" d="m-11485-14490-68-21 73-79 26 74z"/>
					<path id="banks" d="m-8583-17251 7-37 12-49 24-54 9-47-3-9 6-20 10-9 5-8-2-29-7-40-22-35 5-19 23-3 207 36 154 53 21 1 72 10 4 1 6 8 9 6 20 6 52 9 33 21 44 15 82 21 43 1 83-10 16-1 32 3 66 16 19 11 38 33 18 16 23 25 2 3 2 19v36l10 57 81 146 15 23 32 45 34 44 62 59 16 12 11 3 8 5 3 3 2 9 1 24-14 23-27 27-33 17-9 8-7 10v6l5 3 8-1 41-4 30-21 21-17 6-8 3-14 5-9 9-7 16-7 58 29 22 14 11 13 1 11-7 13-17 55 3 24-24 37-3 3-14 1-5 3-24 43-1 7-3 11 3 5 38 15 9-1 7-4 67-57 23-39 2-9v-4l-3-4-9-6-4-21 8-16 19-14 27-8 45-10 152-1 22 4 169 127 15 27 34 63 37 101 34 85 17 40 132 409 27 18 19 33-10 12 44 139-16 62-32 5-35 33-164 63-198 17-64 17-54 29-73 30-94 12-12 24-58-10-248 101-16 5-39 2-68 18-14 11-14 2-8 4-10 12-6 15-21 8-56-12-76 22-88 32-11 4-19 13-19 33-48 74-38 49-25 37-16 27-12 32-33 17-25 4-21-3-11 2-41 18-40 23-18 13-11 6-12-4-51-31-36-24-2-13 22-17-1-8-3-4-28-11-4-1-4 1-19 30 2 19 4 10 2 60v6l-5 12-36 54-46 41-9 7-66 36-16 14-10 10-8 14-28 97-44 74-13 24-1 14 7 22 1 12-4 9-59 82-39 48-8 6-22 14-78 26-17 2-76-1-136 8-25-8-3-4-16-58 5-34-2-10-18-16-6-3-30 2-22 7-26 9-37 20-48 41-33 32-44 13-55 8-43-1-49 4-45 14-24 10-26 15-57 43-60-32-36-12-14-16-8-24-14-79-5-42-1-26 5-29 36-126 8-34 18-106-1-9-5-10-21-32-14-16v-1l7-21 9-55 4-29-4-44-12-53-25-58-17-28-32-41-48-42-38-77-47-109-26-82 10 3 5-2 6-12-2-6-10-7-34-17-47-15-81-17-12-5-53-41-7-13 7-8 12-4 5 2-1 3-11 4-3 4v6l8 9 26 19 3 1 24-16 33-17 5-2 25-28 26-36 3-26-3-8 103-126 44-7 26-35 72-76 60-46 119-43 20 6 8 4h4l4-4 4-82 46-20 34-66 3-14 17-83v-7l-6-12-4-3-5 3-1-4 2-14 3-7 12-10 10-4 12 3 94 47 4 3 14 2h26l57-14 4-9 2-37-4-26-22-49-6-2-6 4-3 5 2 7-2 3h-3l-14-36 5-52 3-12 7-11 5-3 14-2 60-36 77-55 6-6 13-18 2-6v-12l5-7 30-33 107-106 2-3 35-21 6 1 5 5 4 1 58-8 7-3 6-6 29-49 1-1 34-75 2-2 17 4 19-14 33-3 13-12 28-28 13-29 16-38-1-4-14-36-5-6-4-2h-6l-4-1-11-7-18-17-5-8-7-20-1-10 25-35 3-68-2-7v-61z"/>
					<path id="brock" d="m-4497-20373 77-36-6 42-15 3 16 35-21 15 63 26-13 20 20 74 35 24 3 35-17 27 26 28-62 59-49 25-96-6-41-89 9-19-49-109-22-116 31 2v22l96-68z"/>
					<path id="eglinton" d="m-5917-18618 48 59-96 135-87 65-8 40-56 40-6 40-191 152-49 13-26 23-30-26-7-32-40-16-1-32-52-31-39-38v-30l56-50 204-130 24-32 135-50 44 17 50-58 30 4 61-56z"/>
					<path id="eight_bears" d="m-4501-19324 18 12-6 36-32 1-26-22z"/>
					<path id="emerald" d="m-4740-19121 65 28 25 70 24 19-11 50-61 60-34-2-4-18-25-12-39-4-4 20-12-4-3-22-23-25-47-6-96-72 2-22 24-36 54-34 32-8 4 10 33 5 23-11z"/>
					<path id="fitzwilliam_owen" d="m-4574-19365 6 23-31 23-34-9-9-35 12-18 33-3z"/>
					<path id="garry" d="m-14505-15094 28-1 27 60-15 38-5-38z"/>
					<path id="george" d="m-6260-12065 48-2 124 104-76 2z"/>
					<path id="giants_causeway" d="m-6825-18752 40 5-9 50-98 128-34 22-50-50 9-18 85-14z"/>
					<path id="kendall" d="m-14362-14976 28-5 23 23-7 11-51-10v-20l-9-9 13-10z"/>
					<path id="nicholson" d="m-12132-13953-48-56 32-8 24-26 26-23 26-11 13 8-30 56-25-3-18 26z"/>
					<path id="pelly" d="m-14315-15137 29 15-61 38-30 2-3-34z"/>
					<path id="prince_patrick" d="m-4927-19724 2 26-16 29-26 21v14h-70l-16 20-33-2-42 19-50-24 9 46-27 23-24-25 4 50 22 12-26 66 76 93 13 52-29 28-40 4-57-77-33 4 13 101 17 8 25 51-27 136-32-4-31 58-133 24-64-30-20 29-33-28-20 8-16 39 5 34-24 59 6 42-24 40-43 30-39 14-22-6-17 26-46-29-32-41 17-9-17-38-23 5-7-24 14-11-32-86 35-70 53-49-6-31 54-123 65-42 30-58-7-34-18-5-51 62-30-15-35-40-19 25 7 30-30 28-12-42-28 45 20 48-35 101-21-10-32 15 2 16-34 12-24-38 3-22-16-30-10 10 14 32-35-21-29 46 33 25-5 18 30 17-20 138-50 41-69-10-23 50-1 52-43 44-20-16-16 42-18-4-27-64 15-61 3-124 29-54-14-14-20 38-17-13-22 51-21-6 12 89-20 37-30-19 24 47-6 22-54-33-16 9 45 52 8 41-12 44-32 51-5-15 4-28-52 28 11 29-30-6-9 44-65 15-39-7 6-68-9-6-53 77-29 3-27-41 53-107 25-28 7-46-26-5-13 33-15-40-4-39 43-97 22-5 9-15-36-45 5-29-59 42-44 89 5 41-25 83-27-2 32-64-74 9-47 65-14-121-59-67-1-18-67-9-21 35-95 38 8 40-19 38-35-31 3-24-46-36 48-16-21-60 29 5 23-24-32-22 65-20 45-51-68-26 49-15 14-43-152 61 81-98 10 11 42-56 30 8 63-92 104-35 55 14 44-8 45 44 69-2 51-48 22-69 14 11 59-45 36-67 22 39 57-16 44-34 42 10 86-35 3-70 16-13 20 9 52-21 2-21 30-8 10-42 53-8 23-33 27-5 22-43 30 6 26-25 63-14 92-116 31-8 47 24 39-29 115 39 38 25 17-22 19 16 35-7 36 79 39 11-6 22 51 48 26-6 16 18 14-7-34-63 14-18 41 39 10 40 84-59-58-11 14-24-40-5 9-24-20-47 18-20 46 23 45-42-35-17 8-13 45 19h77l59 97-29 27 59 46z"/>
					<path id="summer" d="m-13847-14771 14 9 6 35-9 14-17-14-24-5 2 23-27-16 5-32z"/>
					<path id="unnamed5" d="m-14877-14879 46-31 23 120-24 11-18-34-25 13z"/>
				</g>
</svg>